<?xml version="1.0" encoding="UTF-8"?>
<svg xmlns="http://www.w3.org/2000/svg" version="1.1" viewBox="0 0 1024 1024">
  <!-- Generator: Adobe Illustrator 29.8.4, SVG Export Plug-In . SVG Version: 2.1.1 Build 6)  -->
  <defs>
    <style>
      .st0 {
        fill: #fff;
      }
    </style>
  </defs>
  <g id="Layer_1">
    <path d="M155.33,437.12c20.74,30.68,41.47,61.36,62.21,92.04,4.75-46.23,20.34-129.95,79.2-203.93,33.32-41.88,65.92-62.31,73.06-66.68,53.22-32.57,103.29-36.52,114.15-37.22,75.64-4.85,131.65,28.27,151.47,41.36,7.39-23.47,14.78-46.94,22.17-70.41-28.04-15.29-111.02-55.72-214.54-36.36-72.46,13.55-120.06,49.87-146.35,70.41-91.64,71.61-127.65,165.72-141.36,210.78Z"/>
    <path d="M978.27,25.88c-5.74,26.68-9.73,49.81-12.53,68.18-5.72,37.5-5.85,50.94-11.86,76.32-.54,2.28-8.58,35.64-22.09,64.43-7.67,16.33-38.93,82.94-113.67,117.82-66.14,30.86-129.44,19.66-159.13,11.48-12.99-3.58-15.57-3.21-24.42,8.17-2.18,2.81-4.38,5.78-6.55,8.93-5.84,8.44-10.52,16.6-14.28,24.1-1.99,3.97-6.99,5.3-10.71,2.88l-3.63-2.36c-3.63-2.36-4.5-7.28-1.89-10.74,5.88-7.78,11.86-16.28,17.78-25.53,4.06-6.35,14.74-28.46,13.9-33.64-2.89-17.88-4.81-42.29-1.13-70.71,5.73-44.25,22.01-74.92,25.31-81,32.77-60.37,85.4-87.21,99.87-94.34,29.01-14.3,56.28-19.89,78.24-24.39,34.63-7.1,49.83-5.48,81.46-13.81,28.66-7.55,50.92-18.03,65.35-25.77Z"/>
    <path d="M45.73,998.12h78.01c-.84-149.72-1.69-299.45-2.53-449.17,49.68,105.67,126.11,171.41,231.03,214.46-77.85-108.3-155.71-216.61-233.56-324.91H45.73v559.62Z"/>
    <path d="M136,602.34c3.01,23.06,19.15,127.33,112.83,203.72,105.17,85.76,226.41,69.81,246.06,66.88,16.39-28.33,32.78-56.66,49.17-84.99-15.83,5.85-38.25,12.61-65.73,15.95-13.33,1.62-76.9,8.42-150.95-21.17-64.09-25.61-102.45-65.07-125.79-89.59-32.26-33.89-52.92-67.13-65.58-90.82Z"/>
    <path d="M481.99,501.4h262.73c-3.79,31.49-10.81,69.13-23.87,110.44-10.95,34.64-23.84,64.55-36.34,89.45-41.07,82.59-102.8,187.15-169.36,296.84h-68.11l-69.95-106.31h81.92l22.99,38.66c57.04-86.97,109.16-169.83,146.37-240.23,16.79-41.38,30.29-82.79,39.58-124.26h-185.95v-64.58Z"/>
    <path d="M645.02,819.67c34.01-50.18,50.34-84,58.97-105.96,2.56-6.52,11.6-30.23,25.83-62.35,1.87-4.23,7.24-16.34,13.14-28.77,17.16-36.18,32.99-62.87,41.27-77.01,14.09-24.09,34.22-59.61,60.31-109.18,17.1.05,34.2.11,51.3.18,5.69.02,15.36.07,21.04.1-.88,315.44-1.21,561.54-.03,561.44,0,0,.03-.02.03-.03-.02-.87-76.43.03-76.43.03l3.22-429.07-45.56,84.68-53.39,78.7c-14.79,17.01-33.04,35.63-55.24,54.19-15.41,12.88-30.42,23.81-44.45,33.06Z"/>
  </g>
  <g id="Layer_2">
    <path class="st0" d="M629.14,337.95c11.13-30.46,19.02-64.54,23.15-83.96h13c-7.5,28.66-15.01,57.32-22.51,85.99l51.35-48.55,2.45-84.56h11.05v68.61l29.15-27.92v-75.86h14.11l.92,62.06,44.18-41.73c.36-14.91,3.13-46.72,3.49-61.63,4.14.18,8.28.36,12.43.54l-3.03,50.36,100.63-96.95,1.53,15.65-75.17,68.42,38.04.61-.31,13.19-49.7-.31-40.5,39.89,72.71,1.53.31,15.49-87.44-3.84-52.46,51.24,106.46-.31.92,10.43-120.88,1.84c-16.86,16.54-33.72,33.07-50.59,49.61,28.52-5.49,57.04-10.98,85.56-16.47l-.31,11.35c-14.67,3.54-29.41,6.67-44.16,9.77-14.59,3.07-29.37.51-44.19,9.6-6,3.68-10.47,8.01-10.83,8.36-6.58,6.44-8.71,11.59-16.1,23.14-2.33,3.64-5.86,8.98-10.52,15.35-.41.18-6.16,2.53-11.51-1.03-5.54-3.69-5.38-10.23-5.37-10.58,6.77-7.99,15.98-20.16,24.29-36.47,4.2-8.24,7.09-15.4,9.82-22.86Z"/>
    <circle class="st0" cx="744.81" cy="171.67" r="11.83"/>
    <circle class="st0" cx="744.81" cy="171.67" r="4.03"/>
    <circle class="st0" cx="857.34" cy="230.83" r="11.83"/>
    <circle class="st0" cx="857.34" cy="230.83" r="4.03"/>
    <circle class="st0" cx="701.97" cy="207.16" r="11.83"/>
    <circle class="st0" cx="701.97" cy="207.16" r="4.03"/>
    <circle class="st0" cx="804.7" cy="131.67" r="11.83"/>
    <circle class="st0" cx="804.7" cy="131.67" r="4.03"/>
    <circle class="st0" cx="873.2" cy="175.24" r="11.83"/>
    <circle class="st0" cx="873.2" cy="175.24" r="4.03"/>
    <circle class="st0" cx="909.32" cy="93.32" r="11.83"/>
    <circle class="st0" cx="909.32" cy="93.32" r="4.03"/>
    <circle class="st0" cx="660.21" cy="254.49" r="11.83"/>
    <circle class="st0" cx="660.21" cy="254.49" r="4.03"/>
    <circle class="st0" cx="740.06" cy="335.95" r="11.83"/>
    <circle class="st0" cx="740.06" cy="335.95" r="4.03"/>
    <circle class="st0" cx="823.36" cy="291.31" r="11.83"/>
    <circle class="st0" cx="823.36" cy="291.31" r="4.03"/>
  </g>
</svg>